<svg xmlns="http://www.w3.org/2000/svg" viewBox="0 0 281.82 50.08"><defs><style>.cls-1{fill:#fff;}.cls-2{fill:#e31f26;}</style></defs><g id="Layer_2" data-name="Layer 2"><g id="Layer_1-2" data-name="Layer 1"><path class="cls-1" d="M5.63,37.29l2.74,9.8H6.48L5.89,44.9H2.48l-.59,2.19H0l2.74-9.8Zm-.18,5.93L4.26,38.8H4.12L2.93,43.22Z"/><path class="cls-1" d="M18.26,40.14v1.49H16.44v5.46H14.67V41.63H12.15v5.46H10.39V41.63H8.62V40.14h1.77V38.71a1.38,1.38,0,0,1,.4-1,1.33,1.33,0,0,1,1-.4h1.82v1.45H12.54q-.39,0-.39.42v1h2.52V38.71a1.38,1.38,0,0,1,.4-1,1.35,1.35,0,0,1,1-.4h1.82v1.45H16.83q-.39,0-.39.42v1Z"/><path class="cls-1" d="M21,47.09H19.19v-9.8H21Z"/><path class="cls-1" d="M22.52,37.26a1.22,1.22,0,0,1,.89-.34,1.24,1.24,0,0,1,.89.34,1.24,1.24,0,0,1,0,1.73,1.24,1.24,0,0,1-.89.34,1.22,1.22,0,0,1-.89-.34,1.22,1.22,0,0,1,0-1.73Zm1.77,9.83H22.53v-7h1.76Z"/><path class="cls-1" d="M26.82,40.49a3.44,3.44,0,0,1,2-.54,3.2,3.2,0,0,1,2.18.69,2.48,2.48,0,0,1,.79,2v4.47H30.14v-.82H30a1.74,1.74,0,0,1-.6.69,2.1,2.1,0,0,1-1.28.32,2.81,2.81,0,0,1-1.83-.59,2,2,0,0,1-.72-1.63,1.93,1.93,0,0,1,.74-1.61,3.16,3.16,0,0,1,1.95-.56h1.9v-.4a1.09,1.09,0,0,0-.32-.83,1.32,1.32,0,0,0-1-.31,1.45,1.45,0,0,0-1,.3,1.31,1.31,0,0,0-.45.8l-1.63-.54A2.79,2.79,0,0,1,26.82,40.49Zm.77,5.13a1.31,1.31,0,0,0,.84.23,1.73,1.73,0,0,0,1.21-.42,1.43,1.43,0,0,0,.47-1.12V44.2H28.34a1.18,1.18,0,0,0-.77.23.7.7,0,0,0-.28.59A.71.71,0,0,0,27.59,45.62Z"/><path class="cls-1" d="M34.17,40.14V38h1.77v2.15h1.9v1.43h-1.9v3.67q0,.42.39.42h1.34v1.43h-2a1.53,1.53,0,0,1-1.12-.43,1.56,1.56,0,0,1-.42-1.14v-4H32.44V40.14Z"/><path class="cls-1" d="M38.9,41.69a3.06,3.06,0,0,1,1.23-1.29A3.6,3.6,0,0,1,41.94,40a3.47,3.47,0,0,1,1.77.44,3.1,3.1,0,0,1,1.19,1.27,4.05,4.05,0,0,1,.42,1.87v.6H40.26a1.65,1.65,0,0,0,.53,1.18,1.73,1.73,0,0,0,1.24.46,1.67,1.67,0,0,0,1-.29,2,2,0,0,0,.58-.77l1.44.75A3.26,3.26,0,0,1,42,47.28a3.64,3.64,0,0,1-1.82-.45,3.15,3.15,0,0,1-1.24-1.29,4,4,0,0,1-.45-1.93A4,4,0,0,1,38.9,41.69Zm4.13.15a1.57,1.57,0,0,0-1.1-.38,1.65,1.65,0,0,0-1.13.38,1.51,1.51,0,0,0-.52,1h3.25A1.53,1.53,0,0,0,43,41.84Z"/><path class="cls-1" d="M53.38,37.29l2.12,7.92h.14l2.11-7.92h3.16v9.8H59.12v-7.9H59l-2.11,7.9H54.26l-2.11-7.9H52v7.9H50.22v-9.8Z"/><path class="cls-1" d="M63.47,40.49a3.47,3.47,0,0,1,2-.54,3.18,3.18,0,0,1,2.17.69,2.48,2.48,0,0,1,.79,2v4.47H66.79v-.82H66.6A1.67,1.67,0,0,1,66,47a2.1,2.1,0,0,1-1.28.32,2.83,2.83,0,0,1-1.83-.59,2,2,0,0,1-.72-1.63,1.93,1.93,0,0,1,.74-1.61,3.16,3.16,0,0,1,2-.56h1.91v-.4a1.1,1.1,0,0,0-.33-.83,1.31,1.31,0,0,0-1-.31,1.45,1.45,0,0,0-1,.3,1.31,1.31,0,0,0-.45.8l-1.62-.54A2.72,2.72,0,0,1,63.47,40.49Zm.77,5.13a1.32,1.32,0,0,0,.85.23,1.76,1.76,0,0,0,1.21-.42,1.46,1.46,0,0,0,.47-1.12V44.2H65a1.18,1.18,0,0,0-.77.23.7.7,0,0,0-.28.59A.71.71,0,0,0,64.24,45.62Z"/><path class="cls-1" d="M71.83,41.12a1.4,1.4,0,0,1,.63-.77,2.23,2.23,0,0,1,1.11-.24h.73V41.6h-1a1.61,1.61,0,0,0-1.12.37,1.37,1.37,0,0,0-.42,1.08v4H70v-7h1.73v1Z"/><path class="cls-1" d="M82.45,40.14l-3.27,2.79,3.21,4.16H80.22L77.92,44l-1,.82v2.26H75.19v-9.8H77v5.4l2.88-2.55Z"/><path class="cls-1" d="M82.91,41.69a3.15,3.15,0,0,1,1.24-1.29A3.57,3.57,0,0,1,86,40a3.52,3.52,0,0,1,1.77.44,3.08,3.08,0,0,1,1.18,1.27,4.05,4.05,0,0,1,.42,1.87v.6h-5a1.64,1.64,0,0,0,.52,1.18,1.76,1.76,0,0,0,1.24.46,1.7,1.7,0,0,0,1-.29,2.15,2.15,0,0,0,.58-.77l1.44.75A3.27,3.27,0,0,1,86,47.28a3.64,3.64,0,0,1-1.82-.45,3.23,3.23,0,0,1-1.25-1.29,4,4,0,0,1-.45-1.93A4.09,4.09,0,0,1,82.91,41.69Zm4.13.15A1.54,1.54,0,0,0,86,41.46a1.63,1.63,0,0,0-1.13.38,1.52,1.52,0,0,0-.53,1h3.25A1.48,1.48,0,0,0,87,41.84Z"/><path class="cls-1" d="M91.36,40.14V38h1.77v2.15H95v1.43h-1.9v3.67q0,.42.39.42h1.34v1.43h-2a1.53,1.53,0,0,1-1.12-.43,1.56,1.56,0,0,1-.42-1.14v-4H89.63V40.14Z"/><path class="cls-1" d="M96.2,37.26a1.22,1.22,0,0,1,.89-.34,1.24,1.24,0,0,1,.89.34A1.22,1.22,0,0,1,98,39a1.24,1.24,0,0,1-.89.34A1.22,1.22,0,0,1,96.2,39a1.22,1.22,0,0,1,0-1.73ZM98,47.09H96.21v-7H98Z"/><path class="cls-1" d="M101.27,41.18h.15A2.12,2.12,0,0,1,103.56,40a2.65,2.65,0,0,1,1.41.37,2.49,2.49,0,0,1,1,1,3.2,3.2,0,0,1,.34,1.51v4.15H104.5V43a1.64,1.64,0,0,0-.38-1.18,1.49,1.49,0,0,0-1.11-.39,1.55,1.55,0,0,0-1.26.54,2.28,2.28,0,0,0-.45,1.5v3.59H99.54v-7h1.73Z"/><path class="cls-1" d="M114.63,40.14v6.54a3.21,3.21,0,0,1-1,2.53,3.89,3.89,0,0,1-2.68.87,3.94,3.94,0,0,1-2.37-.64,3.22,3.22,0,0,1-1.21-1.57l1.58-.68a2,2,0,0,0,.68,1,2,2,0,0,0,1.3.39,1.76,1.76,0,0,0,1.93-2V46h-.14a2.65,2.65,0,0,1-2.27,1.09,2.88,2.88,0,0,1-1.55-.45,3.31,3.31,0,0,1-1.15-1.25,3.87,3.87,0,0,1-.44-1.86,3.8,3.8,0,0,1,.44-1.85,3.27,3.27,0,0,1,1.15-1.26,3,3,0,0,1,1.55-.44,2.61,2.61,0,0,1,2.29,1.13h.15v-.94ZM112.36,45a2.07,2.07,0,0,0,.54-1.49,2,2,0,0,0-.54-1.48,2,2,0,0,0-2.74,0,2,2,0,0,0-.53,1.48,2.06,2.06,0,0,0,.53,1.49,2,2,0,0,0,2.74,0Z"/><path class="cls-1" d="M116.42,45a1.3,1.3,0,0,1,.94-.36,1.25,1.25,0,0,1,.94.37,1.33,1.33,0,0,1,.36,1V47.1a1.93,1.93,0,0,1-.47,1.37,1.81,1.81,0,0,1-1.4.51h-.52V48h.59a.68.68,0,0,0,.52-.19.72.72,0,0,0,.19-.53v-.17h-.21a1.37,1.37,0,0,1-.94-.34,1.16,1.16,0,0,1-.36-.88A1.26,1.26,0,0,1,116.42,45Z"/><path class="cls-1" d="M129.56,37.67a2.84,2.84,0,0,1,1.11,1.09,3.33,3.33,0,0,1,.4,1.63,3.27,3.27,0,0,1-.41,1.64,2.8,2.8,0,0,1-1.12,1.09,3.42,3.42,0,0,1-1.61.38h-2.18v3.59H123.9v-9.8h4A3.41,3.41,0,0,1,129.56,37.67Zm-1.81,4.15a1.46,1.46,0,0,0,1.06-.39,1.51,1.51,0,0,0,0-2.07,1.46,1.46,0,0,0-1.06-.39h-2v2.85Z"/><path class="cls-1" d="M131.9,41.69a3.06,3.06,0,0,1,1.23-1.29,3.6,3.6,0,0,1,1.81-.45,3.53,3.53,0,0,1,1.78.44,3.15,3.15,0,0,1,1.18,1.27,4.05,4.05,0,0,1,.42,1.87v.6h-5.06a1.65,1.65,0,0,0,.53,1.18,1.73,1.73,0,0,0,1.24.46,1.67,1.67,0,0,0,1-.29,2,2,0,0,0,.58-.77l1.44.75A3.26,3.26,0,0,1,135,47.28a3.64,3.64,0,0,1-1.82-.45,3.21,3.21,0,0,1-1.24-1.29,4,4,0,0,1-.45-1.93A4.09,4.09,0,0,1,131.9,41.69Zm4.13.15a1.55,1.55,0,0,0-1.1-.38,1.65,1.65,0,0,0-1.13.38,1.51,1.51,0,0,0-.52,1h3.25A1.53,1.53,0,0,0,136,41.84Z"/><path class="cls-1" d="M141.29,41.12a1.38,1.38,0,0,1,.62-.77,2.23,2.23,0,0,1,1.11-.24h.73V41.6h-1a1.63,1.63,0,0,0-1.12.37,1.37,1.37,0,0,0-.42,1.08v4h-1.76v-7h1.74v1Z"/><path class="cls-1" d="M146.06,38.85a1.57,1.57,0,0,1,.42-1.14,1.51,1.51,0,0,1,1.12-.42h1.82v1.42h-1.2a.37.37,0,0,0-.4.42v1h1.82v1.43h-1.82v5.52h-1.76V41.57H144.3V40.14h1.76Z"/><path class="cls-1" d="M150.67,41.68a3.23,3.23,0,0,1,1.3-1.29,4.15,4.15,0,0,1,3.72,0,3.23,3.23,0,0,1,1.3,1.29,4.14,4.14,0,0,1,0,3.87,3.14,3.14,0,0,1-1.3,1.28,4.07,4.07,0,0,1-3.72,0,3.14,3.14,0,0,1-1.3-1.28,4.14,4.14,0,0,1,0-3.87Zm1.8,3.5a1.93,1.93,0,0,0,2.72,0,2.62,2.62,0,0,0,0-3.13,1.93,1.93,0,0,0-2.72,0,2.62,2.62,0,0,0,0,3.13Z"/><path class="cls-1" d="M160.49,41.12a1.44,1.44,0,0,1,.63-.77,2.23,2.23,0,0,1,1.11-.24H163V41.6h-1a1.63,1.63,0,0,0-1.12.37,1.37,1.37,0,0,0-.42,1.08v4h-1.76v-7h1.73v1Z"/><path class="cls-1" d="M165.59,41h.14a1.64,1.64,0,0,1,.67-.71,2.2,2.2,0,0,1,1.15-.27,1.92,1.92,0,0,1,1.9,1.09h.14a2.51,2.51,0,0,1,.75-.8,2.63,2.63,0,0,1,2.92.35,2.51,2.51,0,0,1,.65,1.85v4.57h-1.77V42.61a1.19,1.19,0,0,0-.29-.86,1.15,1.15,0,0,0-.83-.29,1.18,1.18,0,0,0-.93.38,1.66,1.66,0,0,0-.33,1.1v4.15H168V42.61a1.15,1.15,0,0,0-.3-.86,1.12,1.12,0,0,0-.82-.29,1.18,1.18,0,0,0-.93.38,1.66,1.66,0,0,0-.33,1.1v4.15h-1.77v-7h1.74Z"/><path class="cls-1" d="M176.35,40.49a3.47,3.47,0,0,1,2-.54,3.18,3.18,0,0,1,2.17.69,2.48,2.48,0,0,1,.79,2v4.47h-1.68v-.82h-.19a1.6,1.6,0,0,1-.6.69,2.1,2.1,0,0,1-1.28.32,2.83,2.83,0,0,1-1.83-.59,2,2,0,0,1-.72-1.63,1.93,1.93,0,0,1,.74-1.61,3.16,3.16,0,0,1,2-.56h1.91v-.4a1.1,1.1,0,0,0-.33-.83,1.31,1.31,0,0,0-1-.31,1.45,1.45,0,0,0-1,.3,1.36,1.36,0,0,0-.45.8l-1.62-.54A2.72,2.72,0,0,1,176.35,40.49Zm.77,5.13a1.32,1.32,0,0,0,.85.23,1.76,1.76,0,0,0,1.21-.42,1.46,1.46,0,0,0,.47-1.12V44.2h-1.78a1.18,1.18,0,0,0-.77.23.7.7,0,0,0-.28.59A.71.71,0,0,0,177.12,45.62Z"/><path class="cls-1" d="M184.57,41.18h.14A2.14,2.14,0,0,1,186.86,40a2.65,2.65,0,0,1,1.41.37,2.49,2.49,0,0,1,.95,1,3.2,3.2,0,0,1,.34,1.51v4.15h-1.77V43a1.64,1.64,0,0,0-.37-1.18,1.49,1.49,0,0,0-1.11-.39,1.55,1.55,0,0,0-1.26.54,2.28,2.28,0,0,0-.45,1.5v3.59h-1.76v-7h1.73Z"/><path class="cls-1" d="M191.1,41.73a3.34,3.34,0,0,1,1.3-1.31,3.56,3.56,0,0,1,1.83-.47,3.46,3.46,0,0,1,2.29.73,3.23,3.23,0,0,1,1.13,2l-1.71.37a1.76,1.76,0,0,0-.5-1.09,1.59,1.59,0,0,0-1.18-.42,1.75,1.75,0,0,0-1.35.57,2.59,2.59,0,0,0,0,3.11,1.75,1.75,0,0,0,1.35.57,1.62,1.62,0,0,0,1.18-.4,2,2,0,0,0,.56-1.12l1.71.4a3.6,3.6,0,0,1-1.19,1.93,3.46,3.46,0,0,1-2.29.73,3.56,3.56,0,0,1-1.83-.47,3.41,3.41,0,0,1-1.3-1.31,3.74,3.74,0,0,1-.48-1.89A3.68,3.68,0,0,1,191.1,41.73Z"/><path class="cls-1" d="M198.82,41.69a3.06,3.06,0,0,1,1.23-1.29,3.6,3.6,0,0,1,1.81-.45,3.47,3.47,0,0,1,1.77.44,3.1,3.1,0,0,1,1.19,1.27,4.05,4.05,0,0,1,.42,1.87v.6h-5.06a1.65,1.65,0,0,0,.53,1.18,1.73,1.73,0,0,0,1.24.46,1.67,1.67,0,0,0,1-.29,2,2,0,0,0,.58-.77l1.44.75a3.26,3.26,0,0,1-3.12,1.82,3.64,3.64,0,0,1-1.82-.45,3.15,3.15,0,0,1-1.24-1.29,4,4,0,0,1-.45-1.93A4,4,0,0,1,198.82,41.69Zm4.13.15a1.57,1.57,0,0,0-1.1-.38,1.65,1.65,0,0,0-1.13.38,1.51,1.51,0,0,0-.52,1h3.25A1.53,1.53,0,0,0,203,41.84Z"/><path class="cls-1" d="M215,37.29l2.75,9.8h-1.89l-.59-2.19h-3.42l-.59,2.19h-1.89l2.75-9.8Zm-.18,5.93-1.19-4.42h-.14l-1.19,4.42Z"/><path class="cls-1" d="M223.62,47.09v-.94h-.14a2.65,2.65,0,0,1-2.3,1.13,2.86,2.86,0,0,1-1.55-.45,3.12,3.12,0,0,1-1.15-1.28,4.57,4.57,0,0,1,0-3.87,3.22,3.22,0,0,1,1.15-1.29,2.93,2.93,0,0,1,1.55-.44A2.59,2.59,0,0,1,223.45,41h.14V37.29h1.77v9.8ZM220.34,42a2.64,2.64,0,0,0,0,3.17,1.82,1.82,0,0,0,1.38.57,1.8,1.8,0,0,0,1.37-.57,2.64,2.64,0,0,0,0-3.17,1.8,1.8,0,0,0-1.37-.57A1.82,1.82,0,0,0,220.34,42Z"/><path class="cls-1" d="M228.07,40.14l1.72,5.46h.14l1.73-5.46h1.9l-2.39,7h-2.61l-2.39-7Z"/><path class="cls-1" d="M234.25,41.69a3.19,3.19,0,0,1,1.23-1.29A3.64,3.64,0,0,1,237.3,40a3.52,3.52,0,0,1,1.77.44,3.08,3.08,0,0,1,1.18,1.27,4.05,4.05,0,0,1,.42,1.87v.6h-5a1.64,1.64,0,0,0,.52,1.18,1.75,1.75,0,0,0,1.24.46,1.65,1.65,0,0,0,1-.29,2.06,2.06,0,0,0,.59-.77l1.44.75a3.28,3.28,0,0,1-3.12,1.82,3.61,3.61,0,0,1-1.82-.45,3.17,3.17,0,0,1-1.25-1.29,4,4,0,0,1-.45-1.93A4.09,4.09,0,0,1,234.25,41.69Zm4.13.15a1.55,1.55,0,0,0-1.1-.38,1.62,1.62,0,0,0-1.12.38,1.52,1.52,0,0,0-.53,1h3.25A1.48,1.48,0,0,0,238.38,41.84Z"/><path class="cls-1" d="M243.64,41.12a1.42,1.42,0,0,1,.62-.77,2.3,2.3,0,0,1,1.12-.24h.72V41.6h-1A1.61,1.61,0,0,0,244,42a1.37,1.37,0,0,0-.42,1.08v4h-1.77v-7h1.74v1Z"/><path class="cls-1" d="M248.22,40.14V38H250v2.15h1.91v1.43H250v3.67q0,.42.39.42h1.35v1.43h-2a1.51,1.51,0,0,1-1.12-.43,1.56,1.56,0,0,1-.42-1.14v-4h-1.74V40.14Z"/><path class="cls-1" d="M253.05,37.26a1.24,1.24,0,0,1,.89-.34,1.22,1.22,0,0,1,.89.34,1.22,1.22,0,0,1,0,1.73,1.22,1.22,0,0,1-.89.34,1.24,1.24,0,0,1-.89-.34,1.24,1.24,0,0,1,0-1.73Zm1.78,9.83h-1.77v-7h1.77Z"/><path class="cls-1" d="M257,40.51a3.29,3.29,0,0,1,2-.56,3.34,3.34,0,0,1,1.9.51,2.53,2.53,0,0,1,1,1.38l-1.6.49a1.21,1.21,0,0,0-1.32-1,1.39,1.39,0,0,0-.77.18A.59.59,0,0,0,258,42a.58.58,0,0,0,.27.51,2.62,2.62,0,0,0,.85.28l.36.07a10.16,10.16,0,0,1,1.49.41,2.11,2.11,0,0,1,.91.64,1.7,1.7,0,0,1,.35,1.11,2,2,0,0,1-.79,1.68,3.41,3.41,0,0,1-2.13.6,3.84,3.84,0,0,1-2.23-.59A2.42,2.42,0,0,1,256,45l1.62-.43a1.73,1.73,0,0,0,2.55,1.12.66.66,0,0,0,.31-.57.59.59,0,0,0-.3-.51,2.78,2.78,0,0,0-1-.32l-.37-.07a4.65,4.65,0,0,1-1.92-.72,1.65,1.65,0,0,1-.68-1.43A1.9,1.9,0,0,1,257,40.51Z"/><path class="cls-1" d="M263.39,37.26a1.32,1.32,0,0,1,1.77,0,1.22,1.22,0,0,1,0,1.73,1.32,1.32,0,0,1-1.77,0,1.22,1.22,0,0,1,0-1.73Zm1.77,9.83h-1.77v-7h1.77Z"/><path class="cls-1" d="M268.46,41.18h.14A2.13,2.13,0,0,1,270.74,40a2.69,2.69,0,0,1,1.42.37,2.56,2.56,0,0,1,.95,1,3.32,3.32,0,0,1,.33,1.51v4.15h-1.76V43a1.64,1.64,0,0,0-.38-1.18,1.46,1.46,0,0,0-1.1-.39,1.55,1.55,0,0,0-1.26.54,2.28,2.28,0,0,0-.45,1.5v3.59h-1.76v-7h1.73Z"/><path class="cls-1" d="M281.82,40.14v6.54a3.21,3.21,0,0,1-1,2.53,4.63,4.63,0,0,1-5.05.23,3.24,3.24,0,0,1-1.22-1.57l1.59-.68a2,2,0,0,0,3.9-.55V46h-.14a2.63,2.63,0,0,1-2.26,1.09,2.86,2.86,0,0,1-1.55-.45,3.33,3.33,0,0,1-1.16-1.25,3.87,3.87,0,0,1-.43-1.86,3.8,3.8,0,0,1,.43-1.85,3.29,3.29,0,0,1,1.16-1.26,2.93,2.93,0,0,1,1.55-.44,2.62,2.62,0,0,1,2.29,1.13h.14v-.94ZM279.55,45a2.1,2.1,0,0,0,.53-1.49,2.08,2.08,0,0,0-.53-1.48,2,2,0,0,0-2.74,0,2,2,0,0,0-.54,1.48,2.07,2.07,0,0,0,.54,1.49,2,2,0,0,0,2.74,0Z"/><path class="cls-1" d="M23,28.14H15.72L9.83,18.89H8.36v9.25H1.92V2.9H13.16a7.72,7.72,0,0,1,7.74,8A7.53,7.53,0,0,1,16,18.13Zm-8.25-17A2.52,2.52,0,0,0,12.1,8.5H8.36v5.22H12.1a2.52,2.52,0,0,0,2.61-2.61"/><path class="cls-1" d="M40.05,19.69v1H27.76c.17,2.19,1.06,3.37,3.29,3.37,1.59,0,2.56-.63,2.86-1.73h5.93c-.76,3.66-3.83,6.1-8.75,6.1-5.85,0-9.59-3.36-9.59-8.75s3.78-8.79,9.42-8.79,9.17,3.36,9.13,8.75M28.1,17.29h5.68a2.53,2.53,0,0,0-2.73-1.77c-1.64,0-2.53.63-2.95,1.77"/><rect class="cls-1" x="41.11" width="6.23" height="28.14"/><path class="cls-1" d="M67.32,19.69v1H55c.16,2.19,1.05,3.37,3.27,3.37,1.61,0,2.57-.63,2.87-1.73h5.93c-.76,3.66-3.83,6.1-8.75,6.1-5.85,0-9.59-3.36-9.59-8.75s3.78-8.79,9.42-8.79,9.17,3.36,9.13,8.75m-11.95-2.4h5.68a2.54,2.54,0,0,0-2.74-1.77,2.73,2.73,0,0,0-2.94,1.77"/><polygon class="cls-1" points="85.59 11.32 78.77 28.14 72.92 28.14 66.19 11.32 72.84 11.32 75.87 21.37 78.9 11.32 85.59 11.32"/><path class="cls-1" d="M105.78,23.1v5a3.72,3.72,0,0,1-1.43.33,6.73,6.73,0,0,1-5.64-2.9,6.43,6.43,0,0,1-5.55,2.9c-4.59,0-8.16-3.83-8.16-8.75S88.57,11,93.16,11a6.6,6.6,0,0,1,4.38,1.56V11.32h6.22V21.63c0,1.34.76,1.47,1.43,1.47Zm-8.16-2,.17-.51a2.8,2.8,0,0,0,.12-.84,3.34,3.34,0,1,0-.29,1.35"/><path class="cls-1" d="M124.62,17.5V28.14h-6.23V18.72a2.2,2.2,0,0,0-2.31-2.31,2.38,2.38,0,0,0-2.52,2.31v9.42h-6.23V11.32h6.23v2.4A6.26,6.26,0,0,1,118.65,11c3.36,0,6,2.78,6,6.52"/><path class="cls-1" d="M133.5,15.94v5c0,1.35.67,2.19,1.72,2.19h2.06v4.83a6.21,6.21,0,0,1-2.86.55,7,7,0,0,1-7.15-6.81V15.94h-2.82V11.32h2.82V5.14h6.23v6.18h3.87v4.62Z"/><polygon class="cls-2" points="164.21 2.9 164.21 28.15 157.44 28.15 146.08 12.66 146.08 28.15 139.64 28.15 139.64 2.9 146.37 2.9 157.77 18.34 157.77 2.9 164.21 2.9"/><path class="cls-2" d="M184.39,19.69v1H172.11c.17,2.19,1,3.37,3.28,3.37,1.6,0,2.57-.63,2.86-1.73h5.94c-.76,3.66-3.83,6.1-8.75,6.1-5.85,0-9.6-3.36-9.6-8.75s3.79-8.79,9.43-8.79,9.17,3.36,9.12,8.75m-11.94-2.4h5.68a2.54,2.54,0,0,0-2.74-1.77c-1.64,0-2.52.63-2.94,1.77"/><path class="cls-2" d="M193.69,15.94v5c0,1.35.68,2.19,1.73,2.19h2.06v4.83a6.21,6.21,0,0,1-2.86.55,7,7,0,0,1-7.15-6.81V15.94h-2.82V11.32h2.82V5.14h6.22v6.18h3.87v4.62Z"/><polygon class="cls-2" points="227.33 11.32 221.56 28.14 215.04 28.14 212.31 19.86 209.57 28.14 203.05 28.14 197.25 11.32 204.31 11.32 206.71 21.58 209.95 11.32 214.66 11.32 217.94 21.67 220.34 11.32 227.33 11.32"/><path class="cls-2" d="M226.27,19.73c0-5.09,3.66-8.75,9.59-8.75s9.55,3.66,9.55,8.75-3.66,8.75-9.55,8.75-9.59-3.66-9.59-8.75m12.91,0a3.35,3.35,0,1,0-3.32,3.33,3.23,3.23,0,0,0,3.32-3.33"/><path class="cls-2" d="M258.82,11.19v5.39a8.21,8.21,0,0,0-1.68-.17c-2.48,0-4.21,1.34-4.21,4v7.74H246.7V11.32h6.23v2.36a5.22,5.22,0,0,1,4.46-2.7,5.07,5.07,0,0,1,1.43.21"/><polygon class="cls-2" points="271.54 28.14 266.36 21.12 266.36 28.14 260.13 28.14 260.13 0 266.36 0 266.36 16.87 271.62 11.32 278.98 11.32 271.75 18.98 279.53 28.14 271.54 28.14"/></g></g></svg>