<svg xmlns="http://www.w3.org/2000/svg" viewBox="0 0 249.1 25.56"><defs><style>.cls-1{fill:#111;}.cls-2{fill:#e31f26;}</style></defs><g id="Layer_2" data-name="Layer 2"><g id="Layer_1-2" data-name="Layer 1"><path class="cls-1" d="M18.87,25.25H12.38L7.1,17H5.78v8.3H0V2.6H10.08A6.93,6.93,0,0,1,17,9.74a6.74,6.74,0,0,1-4.41,6.53ZM11.48,10A2.27,2.27,0,0,0,9.13,7.63H5.78v4.68H9.13A2.27,2.27,0,0,0,11.48,10"/><path class="cls-1" d="M34.21,17.67v.94h-11c.15,2,.94,3,2.94,3,1.44,0,2.3-.56,2.57-1.55H34c-.68,3.29-3.43,5.48-7.85,5.48-5.25,0-8.61-3-8.61-7.86S21,9.82,26,9.82s8.23,3,8.19,7.85M23.49,15.52h5.09a2.26,2.26,0,0,0-2.45-1.59,2.46,2.46,0,0,0-2.64,1.59"/><rect class="cls-1" x="35.16" width="5.59" height="25.25"/><path class="cls-1" d="M58.68,17.67v.94h-11c.15,2,.94,3,2.94,3,1.44,0,2.3-.56,2.57-1.55h5.32c-.68,3.29-3.43,5.48-7.85,5.48-5.25,0-8.61-3-8.61-7.86s3.4-7.88,8.46-7.88,8.23,3,8.19,7.85M48,15.52h5.1a2.28,2.28,0,0,0-2.46-1.59A2.46,2.46,0,0,0,48,15.52"/><polygon class="cls-1" points="75.07 10.16 68.96 25.25 63.71 25.25 57.67 10.16 63.63 10.16 66.35 19.18 69.07 10.16 75.07 10.16"/><path class="cls-1" d="M93.19,20.73v4.53a3.22,3.22,0,0,1-1.28.3A6,6,0,0,1,86.85,23a5.79,5.79,0,0,1-5,2.61c-4.12,0-7.33-3.44-7.33-7.86s3.21-7.85,7.33-7.85a5.89,5.89,0,0,1,3.92,1.4V10.16h5.59v9.25c0,1.2.68,1.32,1.28,1.32Zm-7.32-1.82.15-.45a2.33,2.33,0,0,0,.11-.76,3,3,0,1,0-.26,1.21"/><path class="cls-1" d="M110.1,15.7v9.55h-5.59V16.8a2,2,0,0,0-2.08-2.08,2.14,2.14,0,0,0-2.26,2.08v8.45H94.58V10.16h5.59v2.15a5.63,5.63,0,0,1,4.57-2.46c3,0,5.36,2.49,5.36,5.85"/><path class="cls-1" d="M118.06,14.31v4.45c0,1.21.61,2,1.55,2h1.85v4.34a5.72,5.72,0,0,1-2.57.49,6.28,6.28,0,0,1-6.41-6.12V14.31H110V10.16h2.53V4.61h5.58v5.55h3.48v4.15Z"/><polygon class="cls-2" points="145.62 2.6 145.62 25.26 139.54 25.26 129.35 11.37 129.35 25.26 123.57 25.26 123.57 2.6 129.62 2.6 139.85 16.46 139.85 2.6 145.62 2.6"/><path class="cls-2" d="M163.73,17.67v.94h-11c.15,2,.95,3,2.95,3,1.43,0,2.3-.56,2.56-1.55h5.33c-.68,3.29-3.44,5.48-7.85,5.48-5.25,0-8.61-3-8.61-7.86s3.4-7.88,8.45-7.88,8.23,3,8.19,7.85M153,15.52h5.1a2.27,2.27,0,0,0-2.45-1.59A2.46,2.46,0,0,0,153,15.52"/><path class="cls-2" d="M172.08,14.31v4.45c0,1.21.6,2,1.55,2h1.85v4.34a5.75,5.75,0,0,1-2.57.49,6.28,6.28,0,0,1-6.42-6.12V14.31H164V10.16h2.53V4.61h5.59v5.55h3.47v4.15Z"/><polygon class="cls-2" points="202.26 10.16 197.09 25.25 191.24 25.25 188.78 17.82 186.33 25.25 180.47 25.25 175.26 10.16 181.61 10.16 183.76 19.37 186.67 10.16 190.89 10.16 193.84 19.44 195.99 10.16 202.26 10.16"/><path class="cls-2" d="M201.31,17.7c0-4.56,3.28-7.85,8.6-7.85s8.57,3.29,8.57,7.85-3.28,7.86-8.57,7.86-8.6-3.29-8.6-7.86m11.59,0a3,3,0,1,0-3,3,2.9,2.9,0,0,0,3-3"/><path class="cls-2" d="M230.52,10v4.84a7.42,7.42,0,0,0-1.51-.16c-2.23,0-3.78,1.21-3.78,3.59v6.94h-5.59V10.16h5.59v2.11a4.71,4.71,0,0,1,4-2.42,4.49,4.49,0,0,1,1.29.19"/><polygon class="cls-2" points="241.93 25.25 237.28 18.95 237.28 25.25 231.69 25.25 231.69 0 237.28 0 237.28 15.14 242 10.15 248.61 10.15 242.12 17.03 249.1 25.25 241.93 25.25"/></g></g></svg>